<svg aria-hidden="true" style="position: absolute; width: 0; height: 0; overflow: hidden;" version="1.1" xmlns="http://www.w3.org/2000/svg" xmlns:xlink="http://www.w3.org/1999/xlink">
<defs>
<symbol id="icon-search" viewBox="0 0 32 32">
<path fill="none" stroke="#fff" style="stroke: var(--color1, #fff)" stroke-linejoin="round" stroke-linecap="round" stroke-miterlimit="4" stroke-width="2.6667" d="M14.667 25.333c5.891 0 10.667-4.776 10.667-10.667s-4.776-10.667-10.667-10.667c-5.891 0-10.667 4.776-10.667 10.667s4.776 10.667 10.667 10.667z"></path>
<path fill="none" stroke="#fff" style="stroke: var(--color1, #fff)" stroke-linejoin="round" stroke-linecap="round" stroke-miterlimit="4" stroke-width="2.6667" d="M28 28.001l-5.8-5.8"></path>
</symbol>
<symbol id="icon-film" viewBox="0 0 32 32">
<path fill="none" stroke="#818181" style="stroke: var(--color2, #818181)" stroke-linejoin="round" stroke-linecap="round" stroke-miterlimit="4" stroke-width="2.6667" d="M26.427 2.667h-20.853c-1.605 0-2.907 1.301-2.907 2.907v20.853c0 1.605 1.301 2.907 2.907 2.907h20.853c1.605 0 2.907-1.301 2.907-2.907v-20.853c0-1.605-1.301-2.907-2.907-2.907z"></path>
<path fill="none" stroke="#818181" style="stroke: var(--color2, #818181)" stroke-linejoin="round" stroke-linecap="round" stroke-miterlimit="4" stroke-width="2.6667" d="M9.333 2.667v26.667"></path>
<path fill="none" stroke="#818181" style="stroke: var(--color2, #818181)" stroke-linejoin="round" stroke-linecap="round" stroke-miterlimit="4" stroke-width="2.6667" d="M22.667 2.667v26.667"></path>
<path fill="none" stroke="#818181" style="stroke: var(--color2, #818181)" stroke-linejoin="round" stroke-linecap="round" stroke-miterlimit="4" stroke-width="2.6667" d="M2.667 16h26.667"></path>
<path fill="none" stroke="#818181" style="stroke: var(--color2, #818181)" stroke-linejoin="round" stroke-linecap="round" stroke-miterlimit="4" stroke-width="2.6667" d="M2.667 9.333h6.667"></path>
<path fill="none" stroke="#818181" style="stroke: var(--color2, #818181)" stroke-linejoin="round" stroke-linecap="round" stroke-miterlimit="4" stroke-width="2.6667" d="M2.667 22.667h6.667"></path>
<path fill="none" stroke="#818181" style="stroke: var(--color2, #818181)" stroke-linejoin="round" stroke-linecap="round" stroke-miterlimit="4" stroke-width="2.6667" d="M22.667 22.667h6.667"></path>
<path fill="none" stroke="#818181" style="stroke: var(--color2, #818181)" stroke-linejoin="round" stroke-linecap="round" stroke-miterlimit="4" stroke-width="2.6667" d="M22.667 9.333h6.667"></path>
</symbol>
<symbol id="icon-heart" viewBox="0 0 34 32">
<path fill="#ff6b08" style="fill: var(--color3, #ff6b08)" d="M17.231 31.705l-2.412-2.412c-8.96-7.926-14.818-13.268-14.818-19.815 0-5.342 4.135-9.477 9.477-9.477 2.929 0 5.858 1.378 7.754 3.618 1.895-2.24 4.825-3.618 7.754-3.618 5.342 0 9.477 4.135 9.477 9.477 0 6.548-5.858 11.889-14.818 19.815l-2.412 2.412z"></path>
</symbol>
<symbol id="login-icon" viewBox="0 0 32 32">
<path d="M17.343 22.242c-0.391 0.391-0.391 1.024 0 1.414 0.391 0.391 1.024 0.391 1.414 0l6.899-6.9c0.208-0.208 0.297-0.485 0.283-0.757 0.014-0.273-0.075-0.549-0.283-0.757l-6.899-6.899c-0.39-0.391-1.024-0.391-1.414 0s-0.391 1.024 0 1.414l5.243 5.243h-21.586c-0.552 0-1 0.448-1 1s0.448 1 1 1h21.586l-5.243 5.242zM28 2h-20c-2.209 0-4 1.791-4 4v4h2v-4c0-1.104 0.895-2 2-2h20c1.105 0 2 0.896 2 2v20c0 1.104-0.895 2-2 2h-20c-1.105 0-2-0.895-2-2v-4h-2v4c0 2.209 1.791 4 4 4h20c2.209 0 4-1.791 4-4v-20c0-2.209-1.791-4-4-4z"></path>
</symbol>
<symbol id="registration-icon" viewBox="0 0 30 32">
<path d="M20.206 20.501c-1.216 0-2.211 0.997-2.214 2.214v7.076c0 1.216 0.997 2.211 2.214 2.211h7.073c1.219 0 2.214-0.995 2.214-2.211v-7.076c0-1.219-0.997-2.214-2.214-2.214h-7.073zM15.815 29.493c0.458 0 0.828 0.37 0.828 0.828s-0.37 0.828-0.828 0.828h-13.891c-0.531 0-1.010-0.216-1.362-0.565-0.347-0.349-0.562-0.831-0.563-1.362v-27.298c0.001-1.063 0.862-1.924 1.924-1.925h23.649c0.531 0 1.010 0.219 1.359 0.565 0.349 0.348 0.565 0.829 0.565 1.361 0 0 0 0.001 0 0.001v-0 15.946c0 0.458-0.37 0.828-0.828 0.828-0.456 0-0.828-0.37-0.828-0.828v-15.949c0-0.073-0.031-0.141-0.081-0.19s-0.117-0.081-0.188-0.081h-23.649c-0.073 0-0.141 0.031-0.193 0.078-0.047 0.052-0.078 0.117-0.078 0.193v27.293c0 0.073 0.031 0.141 0.081 0.19s0.117 0.081 0.193 0.081l13.889 0.005zM8.604 14.68c-0.156-0.271-0.044-1.047 0.294-1.32 0.964-0.563 2.292-0.388 3.219-1.037 0.055-0.081 0.112-0.198 0.169-0.326 0.083-0.193 0.161-0.404 0.211-0.547-0.206-0.242-0.383-0.516-0.552-0.787l-0.557-0.888c-0.203-0.305-0.31-0.583-0.315-0.81-0.003-0.107 0.016-0.203 0.055-0.292 0.042-0.091 0.104-0.164 0.193-0.224 0.042-0.029 0.086-0.052 0.135-0.068-0.036-0.482-0.049-1.089-0.026-1.596 0.010-0.12 0.036-0.242 0.068-0.362 0.143-0.51 0.5-0.919 0.943-1.201 0.245-0.156 0.51-0.273 0.789-0.352 0.177-0.052-0.151-0.617 0.031-0.635 0.885-0.091 2.32 0.719 2.938 1.388 0.31 0.336 0.505 0.779 0.547 1.367l-0.034 1.448c0.154 0.047 0.253 0.146 0.294 0.305 0.044 0.177-0.003 0.425-0.154 0.763-0.003 0.005-0.005 0.013-0.010 0.018l-0.635 1.047c-0.234 0.385-0.471 0.771-0.779 1.076 0.029 0.042 0.057 0.081 0.086 0.122 0.125 0.185 0.253 0.37 0.417 0.534 0.005 0.005 0.010 0.010 0.013 0.018 0.732 0.518 2.513 0.643 3.198 1.023l0.029 0.016c0.352 0.271 0.461 1.047 0.299 1.318h-10.865zM8.044 24.17c-0.456 0-0.831-0.375-0.831-0.839 0-0.461 0.37-0.839 0.831-0.839h5.63c0.458 0 0.831 0.375 0.831 0.839s-0.37 0.839-0.831 0.839h-5.63zM8.044 18.928c-0.456 0-0.828-0.37-0.828-0.828 0-0.456 0.37-0.828 0.828-0.828h11.165c0.458 0 0.828 0.37 0.828 0.828s-0.37 0.828-0.828 0.828h-11.165zM23.024 23.652c0-0.398 0.323-0.721 0.721-0.721s0.721 0.323 0.721 0.721v0 1.878h1.878c0.398 0 0.721 0.323 0.721 0.721s-0.323 0.721-0.721 0.721v0h-1.878v1.878c0 0.398-0.323 0.721-0.721 0.721s-0.721-0.323-0.721-0.721v0-1.878h-1.88c-0.398 0-0.721-0.323-0.721-0.721s0.323-0.721 0.721-0.721v0h1.878l0.003-1.878z"></path>
</symbol>
</defs>
</svg>
