<svg aria-hidden="true" style="position: absolute; width: 0; height: 0; overflow: hidden;" version="1.1" xmlns="http://www.w3.org/2000/svg" xmlns:xlink="http://www.w3.org/1999/xlink">
<defs>
<symbol id="icon-moon" viewBox="0 0 32 32">
<path fill="#45413c" style="fill: var(--color1, #45413c)" opacity="0.15" d="M26.78 30.333c0 0.552-4.328 1-9.667 1s-9.667-0.448-9.667-1c0-0.552 4.328-1 9.667-1s9.667 0.448 9.667 1z"></path>
<path fill="#ffe500" style="fill: var(--color2, #ffe500)" d="M18.867 3.1c2.378 1.9 3.889 4.799 3.889 8.052 0 5.678-4.602 10.28-10.28 10.28-3.251 0-6.149-1.509-8.033-3.865l-0.016-0.020c-0.076-0.102-0.197-0.168-0.333-0.168-0.228 0-0.413 0.185-0.413 0.413 0 0.036 0.005 0.071 0.013 0.104l-0.001-0.003c1.55 5.303 6.369 9.11 12.077 9.11 6.937 0 12.56-5.623 12.56-12.56 0-5.708-3.808-10.527-9.021-12.055l-0.089-0.022c-0.034-0.010-0.072-0.015-0.112-0.015-0.228 0-0.413 0.185-0.413 0.413 0 0.138 0.067 0.259 0.171 0.335l0.001 0.001z"></path>
<path fill="#ebcb00" style="fill: var(--color3, #ebcb00)" d="M27.367 9.62c0.080 0.537 0.125 1.156 0.125 1.787s-0.045 1.25-0.133 1.856l0.008-0.069c-0.898 6.133-6.122 10.789-12.435 10.789-4.736 0-8.859-2.621-10.999-6.492l-0.033-0.065c-0.134 0.063-0.224 0.196-0.224 0.351 0 0.041 0.006 0.081 0.018 0.118l-0.001-0.003c1.549 5.304 6.369 9.114 12.078 9.114 6.937 0 12.56-5.623 12.56-12.56 0-1.742-0.355-3.401-0.996-4.909l0.031 0.082z"></path>
<path fill="none" stroke="#45413c" style="stroke: var(--color1, #45413c)" stroke-linejoin="round" stroke-linecap="round" stroke-miterlimit="4" stroke-width="0.6667" d="M18.867 3.1c2.378 1.9 3.889 4.799 3.889 8.052 0 5.678-4.602 10.28-10.28 10.28-3.251 0-6.149-1.509-8.033-3.865l-0.016-0.020c-0.076-0.102-0.197-0.168-0.333-0.168-0.228 0-0.413 0.185-0.413 0.413 0 0.036 0.005 0.071 0.013 0.104l-0.001-0.003c1.55 5.303 6.369 9.11 12.077 9.11 6.937 0 12.56-5.623 12.56-12.56 0-5.708-3.808-10.527-9.021-12.055l-0.089-0.022c-0.034-0.010-0.072-0.015-0.112-0.015-0.228 0-0.413 0.185-0.413 0.413 0 0.138 0.067 0.259 0.171 0.335l0.001 0.001z"></path>
</symbol>
<symbol id="icon-sun1" viewBox="0 0 32 32">
<path fill="#ffce00" style="fill: var(--color4, #ffce00)" d="M24.612 16c0 4.756-3.856 8.612-8.612 8.612s-8.612-3.856-8.612-8.612c0-4.756 3.856-8.612 8.612-8.612s8.612 3.856 8.612 8.612z"></path>
<path fill="#ff9d00" style="fill: var(--color5, #ff9d00)" d="M16 7.388c4.756 0 8.612 3.855 8.612 8.612s-3.857 8.612-8.612 8.612z"></path>
<path fill="#ffbc00" style="fill: var(--color6, #ffbc00)" d="M24.612 16c0 4.756-3.857 7.953-8.612 7.953s-8.611-3.197-8.611-7.953c0-4.757 3.856-7.954 8.611-7.954s8.612 3.198 8.612 7.954z"></path>
<path fill="#ffb000" style="fill: var(--color7, #ffb000)" d="M16 8.046c4.756 0 8.612 3.198 8.612 7.954s-3.857 7.953-8.612 7.953-8.611-3.197-8.611-7.953z"></path>
<path fill="#ffbc00" style="fill: var(--color6, #ffbc00)" d="M16 8.046c4.756 0 8.612 3.198 8.612 7.954s-3.857 7.953-8.612 7.953z"></path>
<path fill="#ffce00" style="fill: var(--color4, #ffce00)" d="M24.612 16c0 4.756-3.857 7.953-8.612 7.953z"></path>
<path fill="#ff9d00" style="fill: var(--color5, #ff9d00)" d="M16.644 4.577c0 0.355-0.287 0.644-0.644 0.644-0.355 0-0.643-0.289-0.643-0.644s0.289-0.646 0.643-0.646c0.357 0 0.644 0.29 0.644 0.646z"></path>
<path fill="#ffce00" style="fill: var(--color4, #ffce00)" d="M16.767 2.463l-0.767 0.245-0.764-0.245 0.764-1.493z"></path>
<path fill="#ff9d00" style="fill: var(--color5, #ff9d00)" d="M15.357 27.424c0-0.357 0.289-0.644 0.643-0.644 0.357 0 0.644 0.287 0.644 0.644s-0.287 0.643-0.644 0.643c-0.355 0-0.643-0.287-0.643-0.643z"></path>
<path fill="#ffce00" style="fill: var(--color4, #ffce00)" d="M15.234 29.536l0.766-0.246 0.766 0.247-0.766 1.493z"></path>
<path fill="#ff9d00" style="fill: var(--color5, #ff9d00)" d="M24.533 8.38c-0.25 0.249-0.659 0.249-0.911 0-0.251-0.254-0.251-0.662 0-0.913s0.661-0.252 0.912-0.001c0.252 0.253 0.251 0.661-0.001 0.914z"></path>
<path fill="#ffce00" style="fill: var(--color4, #ffce00)" d="M26.113 6.97l-0.715-0.367-0.367-0.715 1.597-0.516z"></path>
<path fill="#ff9d00" style="fill: var(--color5, #ff9d00)" d="M8.567 24.078c0 0.356-0.289 0.645-0.645 0.645s-0.645-0.289-0.645-0.645c0-0.356 0.289-0.645 0.645-0.645s0.645 0.289 0.645 0.645z"></path>
<path fill="#ffce00" style="fill: var(--color4, #ffce00)" d="M5.887 25.029l0.716 0.367 0.366 0.718-1.597 0.514z"></path>
<path fill="#ff9d00" style="fill: var(--color5, #ff9d00)" d="M28.068 15.999c0 0.356-0.288 0.644-0.644 0.644s-0.644-0.288-0.644-0.644c0-0.356 0.288-0.644 0.644-0.644s0.644 0.288 0.644 0.644z"></path>
<path fill="#ffce00" style="fill: var(--color4, #ffce00)" d="M29.537 16.766l-0.246-0.766 0.246-0.765 1.493 0.765z"></path>
<path fill="#ff9d00" style="fill: var(--color5, #ff9d00)" d="M5.221 15.999c0 0.356-0.288 0.644-0.644 0.644s-0.644-0.288-0.644-0.644c0-0.356 0.288-0.644 0.644-0.644s0.644 0.288 0.644 0.644z"></path>
<path fill="#ffce00" style="fill: var(--color4, #ffce00)" d="M2.465 15.234l0.246 0.766-0.247 0.764-1.493-0.764z"></path>
<path fill="#ff9d00" style="fill: var(--color5, #ff9d00)" d="M23.622 24.534c-0.251-0.252-0.251-0.66 0-0.913s0.661-0.25 0.911 0c0.252 0.252 0.253 0.66 0.001 0.913-0.251 0.25-0.66 0.25-0.912-0.001z"></path>
<path fill="#ffce00" style="fill: var(--color4, #ffce00)" d="M25.030 26.113l0.369-0.715 0.715-0.369 0.515 1.598z"></path>
<path fill="#ff9d00" style="fill: var(--color5, #ff9d00)" d="M8.378 7.466c0.253 0.252 0.253 0.659 0 0.913-0.252 0.249-0.658 0.249-0.912 0-0.252-0.254-0.252-0.661 0-0.913 0.253-0.251 0.66-0.251 0.912 0z"></path>
<path fill="#ffce00" style="fill: var(--color4, #ffce00)" d="M6.971 5.888l-0.368 0.716-0.716 0.367-0.515-1.599z"></path>
<path fill="#ffce00" style="fill: var(--color4, #ffce00)" d="M21.061 5.738c-0.139 0.327-0.517 0.481-0.845 0.341-0.329-0.139-0.48-0.518-0.342-0.845 0.141-0.327 0.518-0.481 0.846-0.34 0.327 0.139 0.48 0.516 0.34 0.845z"></path>
<path fill="#ff9d00" style="fill: var(--color5, #ff9d00)" d="M21.999 3.841l-0.8-0.075-0.609-0.524 1.289-1.077z"></path>
<path fill="#ffce00" style="fill: var(--color4, #ffce00)" d="M12.177 26.513c0 0.356-0.288 0.644-0.644 0.644s-0.644-0.288-0.644-0.644c0-0.356 0.288-0.644 0.644-0.644s0.644 0.288 0.644 0.644z"></path>
<path fill="#ff9d00" style="fill: var(--color5, #ff9d00)" d="M10.002 28.157l0.801 0.075 0.607 0.526-1.288 1.076z"></path>
<path fill="#ffce00" style="fill: var(--color4, #ffce00)" d="M26.835 12.323c-0.33 0.131-0.706-0.027-0.84-0.357-0.132-0.331 0.028-0.706 0.358-0.839 0.33-0.133 0.705 0.025 0.839 0.355s-0.027 0.706-0.357 0.841z"></path>
<path fill="#ff9d00" style="fill: var(--color5, #ff9d00)" d="M28.84 11.644l-0.514-0.62-0.059-0.801 1.671 0.15z"></path>
<path fill="#ffce00" style="fill: var(--color4, #ffce00)" d="M5.165 19.677c0.332-0.132 0.707 0.027 0.84 0.356 0.132 0.332-0.027 0.705-0.357 0.839-0.329 0.134-0.705-0.025-0.838-0.356-0.133-0.329 0.026-0.704 0.355-0.838z"></path>
<path fill="#ff9d00" style="fill: var(--color5, #ff9d00)" d="M3.162 20.355l0.514 0.618 0.058 0.803-1.672-0.15z"></path>
<path fill="#ffce00" style="fill: var(--color4, #ffce00)" d="M26.261 21.060c-0.326-0.139-0.48-0.517-0.34-0.845s0.517-0.48 0.844-0.341c0.328 0.14 0.482 0.518 0.342 0.845-0.139 0.328-0.517 0.481-0.846 0.341z"></path>
<path fill="#ff9d00" style="fill: var(--color5, #ff9d00)" d="M28.159 21.999l0.074-0.8 0.525-0.61 1.076 1.289z"></path>
<path fill="#ffce00" style="fill: var(--color4, #ffce00)" d="M5.738 10.939c0.328 0.139 0.481 0.517 0.341 0.845-0.141 0.329-0.517 0.48-0.845 0.341s-0.481-0.517-0.341-0.845c0.139-0.328 0.516-0.48 0.844-0.341z"></path>
<path fill="#ff9d00" style="fill: var(--color5, #ff9d00)" d="M3.842 10.001l-0.074 0.802-0.525 0.607-1.076-1.289z"></path>
<path fill="#ffce00" style="fill: var(--color4, #ffce00)" d="M20.92 26.593c0 0.356-0.288 0.644-0.644 0.644s-0.644-0.288-0.644-0.644c0-0.356 0.288-0.644 0.644-0.644s0.644 0.288 0.644 0.644z"></path>
<path fill="#ff9d00" style="fill: var(--color5, #ff9d00)" d="M20.356 28.84l0.618-0.515 0.803-0.059-0.151 1.672z"></path>
<path fill="#ffce00" style="fill: var(--color4, #ffce00)" d="M12.322 5.165c0.133 0.331-0.026 0.706-0.356 0.84s-0.706-0.027-0.838-0.356c-0.134-0.332 0.024-0.705 0.355-0.839 0.33-0.133 0.706 0.026 0.838 0.355z"></path>
<path fill="#ff9d00" style="fill: var(--color5, #ff9d00)" d="M11.645 3.161l-0.62 0.514-0.801 0.058 0.15-1.673z"></path>
</symbol>
</defs>
</svg>
